<?xml version="1.0" encoding="UTF-8" standalone="no"?>
<svg
   xmlns:dc="http://purl.org/dc/elements/1.1/"
   xmlns:cc="http://creativecommons.org/ns#"
   xmlns:rdf="http://www.w3.org/1999/02/22-rdf-syntax-ns#"
   xmlns:svg="http://www.w3.org/2000/svg"
   xmlns="http://www.w3.org/2000/svg"
   xmlns:xlink="http://www.w3.org/1999/xlink"
   xmlns:sodipodi="http://sodipodi.sourceforge.net/DTD/sodipodi-0.dtd"
   xmlns:inkscape="http://www.inkscape.org/namespaces/inkscape"
   id="Capa_1"
   enable-background="new 0 0 496.503 496.503"
   height="200"
   viewBox="0 0 193.94648 193.94648"
   width="200"
   version="1.1"
   sodipodi:docname="bike.svg"
   inkscape:version="0.92.3 (2405546, 2018-03-11)">
  <metadata
     id="metadata316">
    <rdf:RDF>
      <cc:Work
         rdf:about="">
        <dc:format>image/svg+xml</dc:format>
        <dc:type
           rdf:resource="http://purl.org/dc/dcmitype/StillImage" />
        <dc:title></dc:title>
      </cc:Work>
    </rdf:RDF>
  </metadata>
  <defs
     id="defs314" />
  <sodipodi:namedview
     pagecolor="#ffffff"
     bordercolor="#666666"
     borderopacity="1"
     objecttolerance="10"
     gridtolerance="10"
     guidetolerance="10"
     inkscape:pageopacity="0"
     inkscape:pageshadow="2"
     inkscape:window-width="1920"
     inkscape:window-height="1017"
     id="namedview312"
     showgrid="false"
     inkscape:zoom="1.65625"
     inkscape:cx="269.28302"
     inkscape:cy="55.859492"
     inkscape:window-x="-8"
     inkscape:window-y="-8"
     inkscape:window-maximized="1"
     inkscape:current-layer="layer2" />
  <linearGradient
     id="lg1">
    <stop
       offset="0"
       stop-color="#4f4a72"
       id="stop164" />
    <stop
       offset="1"
       stop-color="#3b395f"
       id="stop166" />
  </linearGradient>
  <linearGradient
     id="SVGID_1_"
     gradientUnits="userSpaceOnUse"
     x1="248.252"
     x2="248.252"
     xlink:href="#lg1"
     y1="195.298"
     y2="276.298" />
  <linearGradient
     id="SVGID_2_"
     gradientUnits="userSpaceOnUse"
     x1="466.63101"
     x2="492.59601"
     y1="231.382"
     y2="262.63501">
    <stop
       offset="0"
       stop-color="#ff4974"
       id="stop170" />
    <stop
       offset=".2231"
       stop-color="#fb3f6c"
       id="stop172" />
    <stop
       offset=".6075"
       stop-color="#f12357"
       id="stop174" />
    <stop
       offset="1"
       stop-color="#e4003d"
       id="stop176" />
  </linearGradient>
  <linearGradient
     id="lg2">
    <stop
       offset="0"
       stop-color="#ffe548"
       id="stop179" />
    <stop
       offset=".1758"
       stop-color="#ffde50"
       id="stop181" />
    <stop
       offset=".4446"
       stop-color="#ffca65"
       id="stop183" />
    <stop
       offset=".7709"
       stop-color="#ffaa87"
       id="stop185" />
    <stop
       offset="1"
       stop-color="#ff90a4"
       id="stop187" />
  </linearGradient>
  <linearGradient
     id="SVGID_3_"
     gradientUnits="userSpaceOnUse"
     x1="472.70499"
     x2="488.431"
     xlink:href="#lg2"
     y1="252.27699"
     y2="271.207" />
  <linearGradient
     id="lg3">
    <stop
       offset="0"
       stop-color="#3b395f"
       stop-opacity="0"
       id="stop191" />
    <stop
       offset="1"
       stop-color="#3b395f"
       id="stop193" />
  </linearGradient>
  <linearGradient
     id="SVGID_4_"
     gradientUnits="userSpaceOnUse"
     x1="111.16"
     x2="111.16"
     xlink:href="#lg3"
     y1="190.298"
     y2="278.30399" />
  <linearGradient
     id="SVGID_5_"
     gradientUnits="userSpaceOnUse"
     x1="385.17999"
     x2="385.17999"
     xlink:href="#lg3"
     y1="190.298"
     y2="278.30399" />
  <linearGradient
     id="SVGID_6_"
     gradientUnits="userSpaceOnUse"
     x1="246.787"
     x2="246.787"
     xlink:href="#lg1"
     y1="278.298"
     y2="298.298" />
  <linearGradient
     id="lg4">
    <stop
       offset="0"
       stop-color="#a34a9e"
       id="stop199" />
    <stop
       offset=".1551"
       stop-color="#9b489a"
       id="stop201" />
    <stop
       offset=".4019"
       stop-color="#84438f"
       id="stop203" />
    <stop
       offset=".7073"
       stop-color="#5e3b7d"
       id="stop205" />
    <stop
       offset="1"
       stop-color="#343168"
       id="stop207" />
  </linearGradient>
  <radialGradient
     id="SVGID_7_"
     cx="103.707"
     cy="269.27399"
     gradientUnits="userSpaceOnUse"
     r="66.475998"
     xlink:href="#lg4" />
  <linearGradient
     id="lg5">
    <stop
       offset="0"
       stop-color="#a34a9e"
       id="stop211" />
    <stop
       offset="1"
       stop-color="#343168"
       id="stop213" />
  </linearGradient>
  <linearGradient
     id="SVGID_8_"
     gradientTransform="rotate(180,248.2515,-815.7485)"
     gradientUnits="userSpaceOnUse"
     x1="336.97"
     x2="426.59"
     xlink:href="#lg5"
     y1="-1964.582"
     y2="-1874.9611" />
  <linearGradient
     id="lg6">
    <stop
       offset="0"
       stop-color="#d4f7ff"
       id="stop217" />
    <stop
       offset="1"
       stop-color="#a2e3e9"
       id="stop219" />
  </linearGradient>
  <linearGradient
     id="SVGID_9_"
     gradientUnits="userSpaceOnUse"
     x1="65.126999"
     x2="150.408"
     xlink:href="#lg6"
     y1="238.679"
     y2="323.95999" />
  <linearGradient
     id="SVGID_10_"
     gradientUnits="userSpaceOnUse"
     x1="71.655998"
     x2="144.841"
     xlink:href="#lg1"
     y1="245.20799"
     y2="318.39301" />
  <linearGradient
     id="SVGID_11_"
     gradientUnits="userSpaceOnUse"
     x1="83.272003"
     x2="132.97"
     xlink:href="#lg6"
     y1="259.11099"
     y2="308.81" />
  <linearGradient
     id="SVGID_12_"
     gradientUnits="userSpaceOnUse"
     x1="142.293"
     x2="65.177002"
     xlink:href="#lg6"
     y1="318.13101"
     y2="241.01601" />
  <linearGradient
     id="lg7">
    <stop
       offset="0"
       stop-color="#a2e3e9"
       stop-opacity="0"
       id="stop226" />
    <stop
       offset="1"
       stop-color="#518cd2"
       id="stop228" />
  </linearGradient>
  <linearGradient
     id="SVGID_13_"
     gradientUnits="userSpaceOnUse"
     x1="143.603"
     x2="94.899002"
     xlink:href="#lg7"
     y1="317.155"
     y2="268.45099" />
  <linearGradient
     id="SVGID_14_"
     gradientUnits="userSpaceOnUse"
     x1="109.03"
     x2="119.849"
     xlink:href="#lg1"
     y1="282.58099"
     y2="293.39999" />
  <radialGradient
     id="SVGID_15_"
     cx="377.728"
     cy="269.27399"
     gradientUnits="userSpaceOnUse"
     r="66.475998"
     xlink:href="#lg4" />
  <linearGradient
     id="SVGID_16_"
     gradientTransform="rotate(180,248.2515,-815.7485)"
     gradientUnits="userSpaceOnUse"
     x1="62.949001"
     x2="152.569"
     xlink:href="#lg5"
     y1="-1964.582"
     y2="-1874.9611" />
  <linearGradient
     id="SVGID_17_"
     gradientUnits="userSpaceOnUse"
     x1="339.14801"
     x2="424.42999"
     xlink:href="#lg6"
     y1="238.679"
     y2="323.95999" />
  <linearGradient
     id="SVGID_18_"
     gradientUnits="userSpaceOnUse"
     x1="345.677"
     x2="418.86301"
     xlink:href="#lg1"
     y1="245.20799"
     y2="318.39301" />
  <linearGradient
     id="SVGID_19_"
     gradientUnits="userSpaceOnUse"
     x1="357.293"
     x2="406.992"
     xlink:href="#lg6"
     y1="259.11099"
     y2="308.81" />
  <linearGradient
     id="SVGID_20_"
     gradientUnits="userSpaceOnUse"
     x1="416.314"
     x2="339.19901"
     xlink:href="#lg6"
     y1="318.13101"
     y2="241.01601" />
  <linearGradient
     id="SVGID_21_"
     gradientUnits="userSpaceOnUse"
     x1="417.62399"
     x2="368.92001"
     xlink:href="#lg7"
     y1="317.155"
     y2="268.45099" />
  <linearGradient
     id="SVGID_22_"
     gradientUnits="userSpaceOnUse"
     x1="383.05099"
     x2="393.87"
     xlink:href="#lg1"
     y1="282.58099"
     y2="293.39999" />
  <linearGradient
     id="SVGID_23_"
     gradientUnits="userSpaceOnUse"
     x1="250.47501"
     x2="301.828"
     xlink:href="#lg3"
     y1="166.10201"
     y2="260.80399" />
  <linearGradient
     id="SVGID_24_"
     gradientUnits="userSpaceOnUse"
     x1="261.039"
     x2="287.30399"
     y1="151.653"
     y2="236.35699">
    <stop
       offset="0"
       stop-color="#c4f8b6"
       id="stop242" />
    <stop
       offset="1"
       stop-color="#3b8eac"
       id="stop244" />
  </linearGradient>
  <linearGradient
     id="SVGID_25_"
     gradientTransform="rotate(180,248.0825,-291.2485)"
     gradientUnits="userSpaceOnUse"
     x1="195.32401"
     x2="196.60001"
     xlink:href="#lg1"
     y1="-803.29401"
     y2="-792.75299" />
  <linearGradient
     id="SVGID_26_"
     gradientUnits="userSpaceOnUse"
     x1="19.237"
     x2="19.237"
     xlink:href="#lg2"
     y1="238.756"
     y2="252.702" />
  <linearGradient
     id="SVGID_27_"
     gradientUnits="userSpaceOnUse"
     x1="210.24001"
     x2="75.572998"
     y1="243.53101"
     y2="166.864">
    <stop
       offset="0"
       stop-color="#a34a9e"
       stop-opacity="0"
       id="stop249" />
    <stop
       offset="1"
       stop-color="#343168"
       id="stop251" />
  </linearGradient>
  <linearGradient
     id="SVGID_28_"
     gradientUnits="userSpaceOnUse"
     x1="178.506"
     x2="178.506"
     xlink:href="#lg1"
     y1="197.214"
     y2="221.29401" />
  <g
     inkscape:groupmode="layer"
     id="layer1"
     inkscape:label="background">
    <g
       id="g5269"
       transform="matrix(0.9697324,0,0,0.9697324,242.50612,-61.806885)">
</g>
    <g
       id="g5271"
       transform="matrix(0.9697324,0,0,0.9697324,242.50612,-61.806885)">
</g>
    <g
       id="g5273"
       transform="matrix(0.9697324,0,0,0.9697324,242.50612,-61.806885)">
</g>
    <g
       id="g5275"
       transform="matrix(0.9697324,0,0,0.9697324,242.50612,-61.806885)">
</g>
    <g
       id="g5277"
       transform="matrix(0.9697324,0,0,0.9697324,242.50612,-61.806885)">
</g>
    <g
       id="g5279"
       transform="matrix(0.9697324,0,0,0.9697324,242.50612,-61.806885)">
</g>
    <g
       id="g5281"
       transform="matrix(0.9697324,0,0,0.9697324,242.50612,-61.806885)">
</g>
    <g
       id="g5283"
       transform="matrix(0.9697324,0,0,0.9697324,242.50612,-61.806885)">
</g>
    <g
       id="g5285"
       transform="matrix(0.9697324,0,0,0.9697324,242.50612,-61.806885)">
</g>
    <g
       id="g5287"
       transform="matrix(0.9697324,0,0,0.9697324,242.50612,-61.806885)">
</g>
    <g
       id="g5289"
       transform="matrix(0.9697324,0,0,0.9697324,242.50612,-61.806885)">
</g>
    <g
       id="g5291"
       transform="matrix(0.9697324,0,0,0.9697324,242.50612,-61.806885)">
</g>
    <g
       id="g5293"
       transform="matrix(0.9697324,0,0,0.9697324,242.50612,-61.806885)">
</g>
    <g
       id="g5295"
       transform="matrix(0.9697324,0,0,0.9697324,242.50612,-61.806885)">
</g>
    <g
       id="g5297"
       transform="matrix(0.9697324,0,0,0.9697324,242.50612,-61.806885)">
</g>
    <g
       id="g5443"
       transform="matrix(0.42082727,0,0,0.42082727,247.66599,-15.076593)">
</g>
    <g
       id="g5445"
       transform="matrix(0.42082727,0,0,0.42082727,247.66599,-15.076593)">
</g>
    <g
       id="g5447"
       transform="matrix(0.42082727,0,0,0.42082727,247.66599,-15.076593)">
</g>
    <g
       id="g5449"
       transform="matrix(0.42082727,0,0,0.42082727,247.66599,-15.076593)">
</g>
    <g
       id="g5451"
       transform="matrix(0.42082727,0,0,0.42082727,247.66599,-15.076593)">
</g>
    <g
       id="g5453"
       transform="matrix(0.42082727,0,0,0.42082727,247.66599,-15.076593)">
</g>
    <g
       id="g5455"
       transform="matrix(0.42082727,0,0,0.42082727,247.66599,-15.076593)">
</g>
    <g
       id="g5457"
       transform="matrix(0.42082727,0,0,0.42082727,247.66599,-15.076593)">
</g>
    <g
       id="g5459"
       transform="matrix(0.42082727,0,0,0.42082727,247.66599,-15.076593)">
</g>
    <g
       id="g5461"
       transform="matrix(0.42082727,0,0,0.42082727,247.66599,-15.076593)">
</g>
    <g
       id="g5463"
       transform="matrix(0.42082727,0,0,0.42082727,247.66599,-15.076593)">
</g>
    <g
       id="g5465"
       transform="matrix(0.42082727,0,0,0.42082727,247.66599,-15.076593)">
</g>
    <g
       id="g5467"
       transform="matrix(0.42082727,0,0,0.42082727,247.66599,-15.076593)">
</g>
    <g
       id="g5469"
       transform="matrix(0.42082727,0,0,0.42082727,247.66599,-15.076593)">
</g>
    <g
       id="g5471"
       transform="matrix(0.42082727,0,0,0.42082727,247.66599,-15.076593)">
</g>
  </g>
  <g
     inkscape:groupmode="layer"
     id="layer2"
     inkscape:label="object">
    <g
       id="g6222">
      <path
         id="path5439"
         d="m 96.97324,192.40955 c -52.747571,0 -95.4363059,-42.68426 -95.4363059,-95.43631 0,-52.747572 42.6842609,-95.436307 95.4363059,-95.436307 52.74757,0 95.43631,42.684261 95.43631,95.436307 0,52.74757 -42.68427,95.43631 -95.43631,95.43631 z"
         style="fill:#b2c6ba;fill-opacity:1;stroke-width:0.37279809"
         inkscape:connector-curvature="0" />
      <path
         id="path5441"
         d="m 96.97324,1.536933 c -3.72e-4,0 -7.44e-4,0 -8.86e-4,0 V 192.40955 c 3.72e-4,0 7.44e-4,0 8.86e-4,0 52.75204,0 95.43631,-42.68874 95.43631,-95.43631 0,-52.752046 -42.68874,-95.436307 -95.43631,-95.436307 z"
         style="fill:#94b0a0;fill-opacity:1;stroke-width:0.37279809"
         inkscape:connector-curvature="0" />
      <path
         id="path6000"
         d="M 132.82913,83.125714 C 132.72412,83.008347 122.05541,71.371877 113.13004,71.897282 l -0.19183,-3.159637 c 10.6162,-0.621495 21.77325,11.74766 22.24649,12.273065 z"
         style="fill:#3a556a;stroke-width:0.34317774"
         inkscape:connector-curvature="0" />
      <path
         id="path6002"
         d="m 154.88379,87.279537 c 0,0 -1.58273,-21.104743 -24.79768,-32.18458 l -10.81627,8.177926 13.98174,15.828386 c 0,0 -5.1432,9.674523 -15.03701,1.055272 -0.36,-0.313665 -0.83324,-0.844904 -1.34183,-1.466399 -2.37101,-2.897793 -5.93457,-4.5725 -9.67864,-4.529946 l -13.281321,0.150998 c -2.307527,0.02608 -4.470578,1.127682 -5.848778,2.978783 L 81.017874,86.752073 63.60641,86.488169 55.067119,75.871623 C 54.292909,74.90901 53.131597,74.339335 51.896843,74.315655 H 26.145816 c 0,0 1.32398,10.564041 17.411121,13.75525 8.772652,1.739911 26.76752,4.749923 28.491303,21.632205 0.422109,4.13358 0,16.6201 0,16.6201 h 4.748548 47.485162 c 0,-3.4e-4 -2.11055,-33.240194 30.60184,-39.043673 z"
         style="fill:#e7e8eb;stroke-width:0.34317774;fill-opacity:1"
         inkscape:connector-curvature="0" />
      <path
         id="path6004"
         d="m 119.26984,63.272883 24.73934,27.436029 c 0,0 4.92014,-2.396753 10.87461,-3.429375 0,0 -0.2639,-20.049472 -24.79802,-32.18458 z"
         style="fill:#48d37f;fill-opacity:1;stroke-width:0.34317774"
         inkscape:connector-curvature="0" />
      <path
         id="path6006"
         d="m 130.0566,82.483629 c 0,0 13.72574,-18.434135 16.85346,6.971312 0,0 -13.56273,5.864564 -17.98183,15.972869 l -50.765936,1.01409 c -2.632518,0.0525 -4.794879,-2.06696 -4.794879,-4.70017 v 0 c 0,-2.596479 2.104709,-4.701189 4.70119,-4.701189 v 0 c 1.483217,0 2.685367,-1.202494 2.685367,-2.685365 v -7.603103 l 5.870741,-7.529319 c 3.392653,-4.943475 5.570119,-4.804145 9.326885,-4.93421 h 11.609022 c 1.81506,-0.0628 3.7221,0.184287 5.25164,1.16303 0,0 6.45758,4.039888 9.09559,6.551949 1.47772,1.407029 8.14875,0.480106 8.14875,0.480106 z"
         style="fill:#259a53;fill-opacity:1;stroke-width:0.34317774"
         inkscape:connector-curvature="0" />
      <path
         id="path6008"
         d="m 122.01046,61.200776 8.07531,-6.105819 c 0,0 13.78408,6.298341 19.21212,16.397375 l -9.88009,3.652098 z"
         style="fill:#3a556a;stroke-width:0.34317774"
         inkscape:connector-curvature="0" />
      <polygon
         transform="matrix(0.34317773,0,0,0.34317773,26.145816,23.145797)"
         id="polygon6010"
         points="323.246,137.396 328.339,133.36 291.897,101.399 287.62,104.632 "
         style="fill:#64798a" />
      <ellipse
         id="ellipse6012"
         ry="2.5885077"
         rx="5.5215545"
         cy="93.729691"
         cx="-140.76801"
         style="fill:#fcd462;stroke-width:0.34316686"
         transform="rotate(-118.79749)" />
      <ellipse
         id="ellipse6014"
         ry="1.8242749"
         rx="3.891855"
         cy="93.983604"
         cx="-140.9131"
         style="fill:#f6c358;stroke-width:0.34316686"
         transform="rotate(-118.79749)" />
      <polygon
         transform="matrix(0.34317773,0,0,0.34317773,26.145816,23.145797)"
         id="polygon6016"
         points="159.068,185.471 181.265,157.634 87.589,157.76 109.101,185.471 "
         style="fill:#3a556a" />
      <path
         id="path6018"
         d="m 113.15647,68.093157 c -0.77558,-0.128005 -1.50792,0.397057 -1.63627,1.172638 l -0.40427,2.448574 c -0.12834,0.775581 0.39706,1.508266 1.17264,1.636271 l 8.09591,1.336677 0.8679,-5.257483 z"
         style="fill:#175a31;fill-opacity:1;stroke-width:0.34317774"
         inkscape:connector-curvature="0" />
      <circle
         id="circle6020"
         r="19.859352"
         cy="117.76437"
         cx="152.71353"
         style="fill:#2f4859;stroke-width:0.34317774" />
      <circle
         id="circle6022"
         r="12.902796"
         cy="117.76437"
         cx="152.71353"
         style="fill:#d5d6db;stroke-width:0.34317774" />
      <circle
         id="circle6024"
         r="5.5656567"
         cy="117.76437"
         cx="152.71353"
         style="fill:#3a556a;stroke-width:0.34317774" />
      <circle
         id="circle6026"
         r="19.859352"
         cy="117.76437"
         cx="46.005165"
         style="fill:#2f4859;stroke-width:0.34317774" />
      <circle
         id="circle6028"
         r="12.902796"
         cy="117.76437"
         cx="46.005165"
         style="fill:#d5d6db;stroke-width:0.34317774" />
      <circle
         id="circle6030"
         r="5.5656567"
         cy="117.76437"
         cx="46.005165"
         style="fill:#3a556a;stroke-width:0.34317774" />
      <path
         id="path6032"
         d="m 27.808167,78.51821 c 0,0 3.652787,5.463733 8.457961,7.387244 h 3.858346 L 33.397506,78.51821 Z"
         style="fill:#259a53;fill-opacity:1;stroke-width:0.34317774"
         inkscape:connector-curvature="0" />
      <g
         transform="matrix(0.34317773,0,0,0.34317773,26.145816,23.145797)"
         id="g6038">
	<rect
   id="rect6034"
   height="18.448999"
   width="78.844002"
   style="fill:#3a556a"
   y="266.45401"
   x="55.437" />

	
		<rect
   id="rect6036"
   height="78.494003"
   width="18.452999"
   style="fill:#3a556a"
   transform="matrix(-0.5858,0.8105,-0.8105,-0.5858,739.1829,127.5822)"
   y="213.44"
   x="327.76099" />

</g>
      <ellipse
         id="ellipse6040"
         ry="0.95163178"
         rx="6.0677252"
         cy="75.229881"
         cx="101.36317"
         style="fill:#5fd35f;stroke-width:0.34317774" />
    </g>
    <g
       id="g6042"
       transform="matrix(0.9697324,0,0,0.9697324,221.70242,-111.88553)">
</g>
    <g
       id="g6044"
       transform="matrix(0.9697324,0,0,0.9697324,221.70242,-111.88553)">
</g>
    <g
       id="g6046"
       transform="matrix(0.9697324,0,0,0.9697324,221.70242,-111.88553)">
</g>
    <g
       id="g6048"
       transform="matrix(0.9697324,0,0,0.9697324,221.70242,-111.88553)">
</g>
    <g
       id="g6050"
       transform="matrix(0.9697324,0,0,0.9697324,221.70242,-111.88553)">
</g>
    <g
       id="g6052"
       transform="matrix(0.9697324,0,0,0.9697324,221.70242,-111.88553)">
</g>
    <g
       id="g6054"
       transform="matrix(0.9697324,0,0,0.9697324,221.70242,-111.88553)">
</g>
    <g
       id="g6056"
       transform="matrix(0.9697324,0,0,0.9697324,221.70242,-111.88553)">
</g>
    <g
       id="g6058"
       transform="matrix(0.9697324,0,0,0.9697324,221.70242,-111.88553)">
</g>
    <g
       id="g6060"
       transform="matrix(0.9697324,0,0,0.9697324,221.70242,-111.88553)">
</g>
    <g
       id="g6062"
       transform="matrix(0.9697324,0,0,0.9697324,221.70242,-111.88553)">
</g>
    <g
       id="g6064"
       transform="matrix(0.9697324,0,0,0.9697324,221.70242,-111.88553)">
</g>
    <g
       id="g6066"
       transform="matrix(0.9697324,0,0,0.9697324,221.70242,-111.88553)">
</g>
    <g
       id="g6068"
       transform="matrix(0.9697324,0,0,0.9697324,221.70242,-111.88553)">
</g>
    <g
       id="g6070"
       transform="matrix(0.9697324,0,0,0.9697324,221.70242,-111.88553)">
</g>
  </g>
</svg>
