<?xml version="1.0" encoding="UTF-8" standalone="no"?>
<svg
   xmlns:dc="http://purl.org/dc/elements/1.1/"
   xmlns:cc="http://creativecommons.org/ns#"
   xmlns:rdf="http://www.w3.org/1999/02/22-rdf-syntax-ns#"
   xmlns:svg="http://www.w3.org/2000/svg"
   xmlns="http://www.w3.org/2000/svg"
   xmlns:xlink="http://www.w3.org/1999/xlink"
   xmlns:sodipodi="http://sodipodi.sourceforge.net/DTD/sodipodi-0.dtd"
   xmlns:inkscape="http://www.inkscape.org/namespaces/inkscape"
   id="Capa_1"
   enable-background="new 0 0 496.503 496.503"
   height="200"
   viewBox="0 0 193.94648 193.94648"
   width="200"
   version="1.1"
   sodipodi:docname="sedan.svg"
   inkscape:version="0.92.3 (2405546, 2018-03-11)">
  <metadata
     id="metadata316">
    <rdf:RDF>
      <cc:Work
         rdf:about="">
        <dc:format>image/svg+xml</dc:format>
        <dc:type
           rdf:resource="http://purl.org/dc/dcmitype/StillImage" />
        <dc:title />
      </cc:Work>
    </rdf:RDF>
  </metadata>
  <defs
     id="defs314" />
  <sodipodi:namedview
     pagecolor="#ffffff"
     bordercolor="#666666"
     borderopacity="1"
     objecttolerance="10"
     gridtolerance="10"
     guidetolerance="10"
     inkscape:pageopacity="0"
     inkscape:pageshadow="2"
     inkscape:window-width="1920"
     inkscape:window-height="1017"
     id="namedview312"
     showgrid="false"
     inkscape:zoom="1.65625"
     inkscape:cx="157.88679"
     inkscape:cy="55.859492"
     inkscape:window-x="-8"
     inkscape:window-y="-8"
     inkscape:window-maximized="1"
     inkscape:current-layer="layer2" />
  <linearGradient
     id="lg1">
    <stop
       offset="0"
       stop-color="#4f4a72"
       id="stop164" />
    <stop
       offset="1"
       stop-color="#3b395f"
       id="stop166" />
  </linearGradient>
  <linearGradient
     id="SVGID_1_"
     gradientUnits="userSpaceOnUse"
     x1="248.252"
     x2="248.252"
     xlink:href="#lg1"
     y1="195.298"
     y2="276.298" />
  <linearGradient
     id="SVGID_2_"
     gradientUnits="userSpaceOnUse"
     x1="466.63101"
     x2="492.59601"
     y1="231.382"
     y2="262.63501">
    <stop
       offset="0"
       stop-color="#ff4974"
       id="stop170" />
    <stop
       offset=".2231"
       stop-color="#fb3f6c"
       id="stop172" />
    <stop
       offset=".6075"
       stop-color="#f12357"
       id="stop174" />
    <stop
       offset="1"
       stop-color="#e4003d"
       id="stop176" />
  </linearGradient>
  <linearGradient
     id="lg2">
    <stop
       offset="0"
       stop-color="#ffe548"
       id="stop179" />
    <stop
       offset=".1758"
       stop-color="#ffde50"
       id="stop181" />
    <stop
       offset=".4446"
       stop-color="#ffca65"
       id="stop183" />
    <stop
       offset=".7709"
       stop-color="#ffaa87"
       id="stop185" />
    <stop
       offset="1"
       stop-color="#ff90a4"
       id="stop187" />
  </linearGradient>
  <linearGradient
     id="SVGID_3_"
     gradientUnits="userSpaceOnUse"
     x1="472.70499"
     x2="488.431"
     xlink:href="#lg2"
     y1="252.27699"
     y2="271.207" />
  <linearGradient
     id="lg3">
    <stop
       offset="0"
       stop-color="#3b395f"
       stop-opacity="0"
       id="stop191" />
    <stop
       offset="1"
       stop-color="#3b395f"
       id="stop193" />
  </linearGradient>
  <linearGradient
     id="SVGID_4_"
     gradientUnits="userSpaceOnUse"
     x1="111.16"
     x2="111.16"
     xlink:href="#lg3"
     y1="190.298"
     y2="278.30399" />
  <linearGradient
     id="SVGID_5_"
     gradientUnits="userSpaceOnUse"
     x1="385.17999"
     x2="385.17999"
     xlink:href="#lg3"
     y1="190.298"
     y2="278.30399" />
  <linearGradient
     id="SVGID_6_"
     gradientUnits="userSpaceOnUse"
     x1="246.787"
     x2="246.787"
     xlink:href="#lg1"
     y1="278.298"
     y2="298.298" />
  <linearGradient
     id="lg4">
    <stop
       offset="0"
       stop-color="#a34a9e"
       id="stop199" />
    <stop
       offset=".1551"
       stop-color="#9b489a"
       id="stop201" />
    <stop
       offset=".4019"
       stop-color="#84438f"
       id="stop203" />
    <stop
       offset=".7073"
       stop-color="#5e3b7d"
       id="stop205" />
    <stop
       offset="1"
       stop-color="#343168"
       id="stop207" />
  </linearGradient>
  <radialGradient
     id="SVGID_7_"
     cx="103.707"
     cy="269.27399"
     gradientUnits="userSpaceOnUse"
     r="66.475998"
     xlink:href="#lg4" />
  <linearGradient
     id="lg5">
    <stop
       offset="0"
       stop-color="#a34a9e"
       id="stop211" />
    <stop
       offset="1"
       stop-color="#343168"
       id="stop213" />
  </linearGradient>
  <linearGradient
     id="SVGID_8_"
     gradientTransform="rotate(180,248.2515,-815.7485)"
     gradientUnits="userSpaceOnUse"
     x1="336.97"
     x2="426.59"
     xlink:href="#lg5"
     y1="-1964.582"
     y2="-1874.9611" />
  <linearGradient
     id="lg6">
    <stop
       offset="0"
       stop-color="#d4f7ff"
       id="stop217" />
    <stop
       offset="1"
       stop-color="#a2e3e9"
       id="stop219" />
  </linearGradient>
  <linearGradient
     id="SVGID_9_"
     gradientUnits="userSpaceOnUse"
     x1="65.126999"
     x2="150.408"
     xlink:href="#lg6"
     y1="238.679"
     y2="323.95999" />
  <linearGradient
     id="SVGID_10_"
     gradientUnits="userSpaceOnUse"
     x1="71.655998"
     x2="144.841"
     xlink:href="#lg1"
     y1="245.20799"
     y2="318.39301" />
  <linearGradient
     id="SVGID_11_"
     gradientUnits="userSpaceOnUse"
     x1="83.272003"
     x2="132.97"
     xlink:href="#lg6"
     y1="259.11099"
     y2="308.81" />
  <linearGradient
     id="SVGID_12_"
     gradientUnits="userSpaceOnUse"
     x1="142.293"
     x2="65.177002"
     xlink:href="#lg6"
     y1="318.13101"
     y2="241.01601" />
  <linearGradient
     id="lg7">
    <stop
       offset="0"
       stop-color="#a2e3e9"
       stop-opacity="0"
       id="stop226" />
    <stop
       offset="1"
       stop-color="#518cd2"
       id="stop228" />
  </linearGradient>
  <linearGradient
     id="SVGID_13_"
     gradientUnits="userSpaceOnUse"
     x1="143.603"
     x2="94.899002"
     xlink:href="#lg7"
     y1="317.155"
     y2="268.45099" />
  <linearGradient
     id="SVGID_14_"
     gradientUnits="userSpaceOnUse"
     x1="109.03"
     x2="119.849"
     xlink:href="#lg1"
     y1="282.58099"
     y2="293.39999" />
  <radialGradient
     id="SVGID_15_"
     cx="377.728"
     cy="269.27399"
     gradientUnits="userSpaceOnUse"
     r="66.475998"
     xlink:href="#lg4" />
  <linearGradient
     id="SVGID_16_"
     gradientTransform="rotate(180,248.2515,-815.7485)"
     gradientUnits="userSpaceOnUse"
     x1="62.949001"
     x2="152.569"
     xlink:href="#lg5"
     y1="-1964.582"
     y2="-1874.9611" />
  <linearGradient
     id="SVGID_17_"
     gradientUnits="userSpaceOnUse"
     x1="339.14801"
     x2="424.42999"
     xlink:href="#lg6"
     y1="238.679"
     y2="323.95999" />
  <linearGradient
     id="SVGID_18_"
     gradientUnits="userSpaceOnUse"
     x1="345.677"
     x2="418.86301"
     xlink:href="#lg1"
     y1="245.20799"
     y2="318.39301" />
  <linearGradient
     id="SVGID_19_"
     gradientUnits="userSpaceOnUse"
     x1="357.293"
     x2="406.992"
     xlink:href="#lg6"
     y1="259.11099"
     y2="308.81" />
  <linearGradient
     id="SVGID_20_"
     gradientUnits="userSpaceOnUse"
     x1="416.314"
     x2="339.19901"
     xlink:href="#lg6"
     y1="318.13101"
     y2="241.01601" />
  <linearGradient
     id="SVGID_21_"
     gradientUnits="userSpaceOnUse"
     x1="417.62399"
     x2="368.92001"
     xlink:href="#lg7"
     y1="317.155"
     y2="268.45099" />
  <linearGradient
     id="SVGID_22_"
     gradientUnits="userSpaceOnUse"
     x1="383.05099"
     x2="393.87"
     xlink:href="#lg1"
     y1="282.58099"
     y2="293.39999" />
  <linearGradient
     id="SVGID_23_"
     gradientUnits="userSpaceOnUse"
     x1="250.47501"
     x2="301.828"
     xlink:href="#lg3"
     y1="166.10201"
     y2="260.80399" />
  <linearGradient
     id="SVGID_24_"
     gradientUnits="userSpaceOnUse"
     x1="261.039"
     x2="287.30399"
     y1="151.653"
     y2="236.35699">
    <stop
       offset="0"
       stop-color="#c4f8b6"
       id="stop242" />
    <stop
       offset="1"
       stop-color="#3b8eac"
       id="stop244" />
  </linearGradient>
  <linearGradient
     id="SVGID_25_"
     gradientTransform="rotate(180,248.0825,-291.2485)"
     gradientUnits="userSpaceOnUse"
     x1="195.32401"
     x2="196.60001"
     xlink:href="#lg1"
     y1="-803.29401"
     y2="-792.75299" />
  <linearGradient
     id="SVGID_26_"
     gradientUnits="userSpaceOnUse"
     x1="19.237"
     x2="19.237"
     xlink:href="#lg2"
     y1="238.756"
     y2="252.702" />
  <linearGradient
     id="SVGID_27_"
     gradientUnits="userSpaceOnUse"
     x1="210.24001"
     x2="75.572998"
     y1="243.53101"
     y2="166.864">
    <stop
       offset="0"
       stop-color="#a34a9e"
       stop-opacity="0"
       id="stop249" />
    <stop
       offset="1"
       stop-color="#343168"
       id="stop251" />
  </linearGradient>
  <linearGradient
     id="SVGID_28_"
     gradientUnits="userSpaceOnUse"
     x1="178.506"
     x2="178.506"
     xlink:href="#lg1"
     y1="197.214"
     y2="221.29401" />
  <g
     inkscape:groupmode="layer"
     id="layer1"
     inkscape:label="background">
    <g
       id="g5269"
       transform="matrix(0.9697324,0,0,0.9697324,242.50612,-61.806885)" />
    <g
       id="g5271"
       transform="matrix(0.9697324,0,0,0.9697324,242.50612,-61.806885)" />
    <g
       id="g5273"
       transform="matrix(0.9697324,0,0,0.9697324,242.50612,-61.806885)" />
    <g
       id="g5275"
       transform="matrix(0.9697324,0,0,0.9697324,242.50612,-61.806885)" />
    <g
       id="g5277"
       transform="matrix(0.9697324,0,0,0.9697324,242.50612,-61.806885)" />
    <g
       id="g5279"
       transform="matrix(0.9697324,0,0,0.9697324,242.50612,-61.806885)" />
    <g
       id="g5281"
       transform="matrix(0.9697324,0,0,0.9697324,242.50612,-61.806885)" />
    <g
       id="g5283"
       transform="matrix(0.9697324,0,0,0.9697324,242.50612,-61.806885)" />
    <g
       id="g5285"
       transform="matrix(0.9697324,0,0,0.9697324,242.50612,-61.806885)" />
    <g
       id="g5287"
       transform="matrix(0.9697324,0,0,0.9697324,242.50612,-61.806885)" />
    <g
       id="g5289"
       transform="matrix(0.9697324,0,0,0.9697324,242.50612,-61.806885)" />
    <g
       id="g5291"
       transform="matrix(0.9697324,0,0,0.9697324,242.50612,-61.806885)" />
    <g
       id="g5293"
       transform="matrix(0.9697324,0,0,0.9697324,242.50612,-61.806885)" />
    <g
       id="g5295"
       transform="matrix(0.9697324,0,0,0.9697324,242.50612,-61.806885)" />
    <g
       id="g5297"
       transform="matrix(0.9697324,0,0,0.9697324,242.50612,-61.806885)" />
    <g
       id="g5443"
       transform="matrix(0.42082727,0,0,0.42082727,247.66599,-15.076593)" />
    <g
       id="g5445"
       transform="matrix(0.42082727,0,0,0.42082727,247.66599,-15.076593)" />
    <g
       id="g5447"
       transform="matrix(0.42082727,0,0,0.42082727,247.66599,-15.076593)" />
    <g
       id="g5449"
       transform="matrix(0.42082727,0,0,0.42082727,247.66599,-15.076593)" />
    <g
       id="g5451"
       transform="matrix(0.42082727,0,0,0.42082727,247.66599,-15.076593)" />
    <g
       id="g5453"
       transform="matrix(0.42082727,0,0,0.42082727,247.66599,-15.076593)" />
    <g
       id="g5455"
       transform="matrix(0.42082727,0,0,0.42082727,247.66599,-15.076593)" />
    <g
       id="g5457"
       transform="matrix(0.42082727,0,0,0.42082727,247.66599,-15.076593)" />
    <g
       id="g5459"
       transform="matrix(0.42082727,0,0,0.42082727,247.66599,-15.076593)" />
    <g
       id="g5461"
       transform="matrix(0.42082727,0,0,0.42082727,247.66599,-15.076593)" />
    <g
       id="g5463"
       transform="matrix(0.42082727,0,0,0.42082727,247.66599,-15.076593)" />
    <g
       id="g5465"
       transform="matrix(0.42082727,0,0,0.42082727,247.66599,-15.076593)" />
    <g
       id="g5467"
       transform="matrix(0.42082727,0,0,0.42082727,247.66599,-15.076593)" />
    <g
       id="g5469"
       transform="matrix(0.42082727,0,0,0.42082727,247.66599,-15.076593)" />
    <g
       id="g5471"
       transform="matrix(0.42082727,0,0,0.42082727,247.66599,-15.076593)" />
    <g
       style=""
       id="g5518" />
  </g>
  <g
     inkscape:groupmode="layer"
     id="layer2"
     inkscape:label="object">
    <g
       id="g8109">
      <g
         transform="matrix(0.88586957,0,0,0.88586957,-217.86283,14.892828)"
         id="g5525"
         style="">
        <path
           id="path5439"
           d="m 355.39777,200.38697 c -59.54327,0 -107.73178,-48.18346 -107.73178,-107.731782 0,-59.543271 48.18346,-107.731781 107.73178,-107.731781 59.54327,0 107.73178,48.18346 107.73178,107.731781 0,59.543272 -48.18346,107.731782 -107.73178,107.731782 z"
           style="fill:#a1a6b9;fill-opacity:1;stroke-width:0.42082727"
           inkscape:connector-curvature="0" />
        <path
           id="path5441"
           d="m 355.39777,-15.076593 c -4.2e-4,0 -8.4e-4,0 -10e-4,0 V 200.38697 c 4.2e-4,0 8.4e-4,0 10e-4,0 59.54832,0 107.73178,-48.18851 107.73178,-107.731782 0,-59.548321 -48.18851,-107.731781 -107.73178,-107.731781 z"
           style="fill:#9297ae;fill-opacity:1;stroke-width:0.42082727"
           inkscape:connector-curvature="0" />
      </g>
      <g
         transform="matrix(-0.32114364,0,0,0.32114364,176.69741,17.24885)"
         id="g4049">
        <path
           style="fill:url(#SVGID_1_)"
           inkscape:connector-curvature="0"
           d="m 480.501,188.088 c -26.764,-0.768 -53.449,-3.27 -79.392,-9.893 l -41.174,-10.511 c -24.414,-6.233 -49.512,-9.386 -74.71,-9.386 h -17.389 -5.093 c -9.51,0 -18.869,2.377 -27.227,6.914 l -76.653,41.616 c -2.314,-0.173 -4.656,-0.35 -7.027,-0.53 -81.794,-6.218 -126.523,22.154 -145.268,38.681 -6.662,5.874 -8.489,15.513 -4.407,23.402 l 6.269,12.115 c 5.368,10.374 16.074,16.888 27.754,16.888 H 453.75 c 12.085,0 23.324,-6.207 29.76,-16.436 l 9.773,-15.533 c 2.103,-3.343 3.219,-7.212 3.219,-11.162 v -49.688 c 10e-4,-8.943 -7.12,-16.222 -16.001,-16.477 z"
           id="path255" />
        <path
           style="fill:url(#SVGID_2_)"
           inkscape:connector-curvature="0"
           d="m 496.5,223.838 v 30.41 c 0,3.95 -1.11,7.82 -3.22,11.17 l -9.77,15.53 c -1.67,2.66 -3.67,5.05 -5.92,7.12 v -53.93 c 0,-5.69 4.61,-10.3 10.29,-10.3 z"
           id="path257" />
        <path
           style="fill:url(#SVGID_3_)"
           inkscape:connector-curvature="0"
           d="m 496.5,251.008 v 3.24 c 0,3.95 -1.11,7.82 -3.22,11.17 l -9.77,15.53 c -1.67,2.66 -3.67,5.05 -5.92,7.12 v -34.31 c 0,-1.51 1.24,-2.75 2.75,-2.75 z"
           id="path259" />
        <path
           style="fill:url(#SVGID_4_)"
           inkscape:connector-curvature="0"
           d="m 185.16,284.707 h -148 c 0,-40.87 33.13,-74 74,-74 7,0 13.78,0.97 20.21,2.8 31.05,8.79 53.79,37.34 53.79,71.2 z"
           id="path261" />
        <path
           style="fill:url(#SVGID_5_)"
           inkscape:connector-curvature="0"
           d="m 459.18,284.707 h -148 c 0,-18.22 6.58,-34.9 17.51,-47.8 0.81,-1.17 1.73,-2.27 2.74,-3.28 0.59,-0.59 1.21,-1.15 1.86,-1.68 10.26,-10.09 23.45,-17.21 38.18,-19.97 4.44,-0.83 9.03,-1.27 13.71,-1.27 40.87,0 74,33.13 74,74 z"
           id="path263" />
        <path
           style="fill:url(#SVGID_6_)"
           inkscape:connector-curvature="0"
           d="m 73.794,273.599 h 345.984 v 25.028 H 73.794 Z"
           id="path265" />
        <circle
           style="fill:url(#SVGID_7_)"
           cx="111.159"
           cy="284.711"
           r="53.493999"
           id="circle267" />
        <circle
           style="fill:url(#SVGID_8_)"
           cx="111.159"
           cy="284.711"
           r="42.25"
           id="circle269" />
        <circle
           style="fill:url(#SVGID_9_)"
           cx="111.159"
           cy="284.711"
           r="40.203999"
           id="circle271" />
        <circle
           style="fill:url(#SVGID_10_)"
           cx="111.159"
           cy="284.711"
           r="34.501999"
           id="circle273" />
        <path
           style="fill:url(#SVGID_11_)"
           inkscape:connector-curvature="0"
           d="m 117.433,248.606 6.455,13.08 c 1.019,2.065 2.989,3.497 5.268,3.828 l 14.435,2.098 c 5.739,0.834 8.031,7.887 3.878,11.935 l -10.445,10.181 c -1.649,1.607 -2.402,3.923 -2.012,6.193 l 2.466,14.376 c 0.98,5.716 -5.019,10.075 -10.152,7.376 l -12.911,-6.788 c -2.038,-1.072 -4.474,-1.072 -6.512,0 l -12.911,6.788 c -5.133,2.699 -11.133,-1.66 -10.152,-7.376 l 2.466,-14.376 c 0.389,-2.27 -0.363,-4.586 -2.012,-6.193 L 74.849,279.547 c -4.153,-4.048 -1.861,-11.101 3.878,-11.935 l 14.435,-2.098 c 2.279,-0.331 4.249,-1.763 5.268,-3.828 l 6.455,-13.08 c 2.566,-5.2 9.982,-5.2 12.548,0 z"
           id="path275" />
        <path
           style="fill:url(#SVGID_12_)"
           inkscape:connector-curvature="0"
           d="m 130.583,313.493 c -0.313,0 -0.617,-0.08 -0.93,-0.245 l -12.911,-6.788 c -1.714,-0.901 -3.645,-1.378 -5.583,-1.378 -1.938,0 -3.868,0.477 -5.583,1.379 l -12.911,6.787 c -0.313,0.165 -0.618,0.245 -0.931,0.245 -0.576,0 -1.157,-0.28 -1.552,-0.75 -0.38,-0.451 -0.52,-0.99 -0.415,-1.602 l 2.466,-14.376 c 0.667,-3.893 -0.622,-7.862 -3.45,-10.619 L 78.338,275.964 c -0.774,-0.754 -0.649,-1.606 -0.506,-2.047 0.143,-0.441 0.544,-1.204 1.612,-1.359 l 14.435,-2.098 c 3.908,-0.568 7.285,-3.022 9.033,-6.563 l 6.456,-13.08 c 0.478,-0.969 1.327,-1.113 1.79,-1.113 0.463,0 1.313,0.144 1.791,1.113 l 6.456,13.08 c 1.748,3.542 5.125,5.995 9.033,6.563 l 14.435,2.098 c 1.069,0.155 1.469,0.918 1.612,1.359 0.143,0.441 0.268,1.293 -0.505,2.047 l -10.445,10.182 c -2.828,2.757 -4.117,6.726 -3.45,10.619 l 2.466,14.376 c 0.105,0.611 -0.035,1.15 -0.414,1.601 -0.398,0.471 -0.978,0.751 -1.554,0.751 z"
           id="path277" />
        <path
           style="fill:url(#SVGID_13_)"
           inkscape:connector-curvature="0"
           d="m 145.879,304.972 c -3.49,5.98 -8.48,10.97 -14.45,14.46 l -27.02,-27.01 c -2.14,-1.88 -3.51,-4.63 -3.51,-7.71 0,-5.67 4.6,-10.26 10.26,-10.26 3.08,0 5.83,1.36 7.71,3.51 z"
           id="path279" />
        <circle
           style="fill:url(#SVGID_14_)"
           cx="111.159"
           cy="284.711"
           r="10.256"
           id="circle281" />
        <circle
           style="fill:url(#SVGID_15_)"
           cx="385.17999"
           cy="284.711"
           r="53.493999"
           id="circle283" />
        <circle
           style="fill:url(#SVGID_16_)"
           cx="385.17999"
           cy="284.711"
           r="42.25"
           id="circle285" />
        <circle
           style="fill:url(#SVGID_17_)"
           cx="385.17999"
           cy="284.711"
           r="40.205002"
           id="circle287" />
        <circle
           style="fill:url(#SVGID_18_)"
           cx="385.17999"
           cy="284.711"
           r="34.501999"
           id="circle289" />
        <path
           style="fill:url(#SVGID_19_)"
           inkscape:connector-curvature="0"
           d="m 391.455,248.606 6.455,13.08 c 1.019,2.065 2.989,3.497 5.268,3.828 l 14.435,2.098 c 5.739,0.834 8.031,7.887 3.878,11.935 l -10.445,10.181 c -1.649,1.607 -2.402,3.923 -2.012,6.193 l 2.466,14.376 c 0.98,5.716 -5.019,10.075 -10.152,7.376 l -12.911,-6.788 c -2.038,-1.072 -4.474,-1.072 -6.512,0 l -12.911,6.788 c -5.133,2.699 -11.133,-1.66 -10.152,-7.376 l 2.466,-14.376 c 0.389,-2.27 -0.363,-4.586 -2.012,-6.193 l -10.445,-10.181 c -4.153,-4.048 -1.861,-11.101 3.878,-11.935 l 14.435,-2.098 c 2.279,-0.331 4.249,-1.763 5.268,-3.828 l 6.455,-13.08 c 2.565,-5.2 9.981,-5.2 12.548,0 z"
           id="path291" />
        <path
           style="fill:url(#SVGID_20_)"
           inkscape:connector-curvature="0"
           d="m 404.604,313.493 c -0.313,0 -0.617,-0.08 -0.93,-0.245 l -12.911,-6.788 c -1.714,-0.901 -3.645,-1.378 -5.582,-1.378 -1.937,0 -3.868,0.477 -5.583,1.379 l -12.911,6.787 c -0.313,0.165 -0.618,0.245 -0.931,0.245 -0.576,0 -1.157,-0.28 -1.552,-0.75 -0.38,-0.451 -0.52,-0.99 -0.414,-1.602 l 2.466,-14.376 c 0.667,-3.893 -0.623,-7.862 -3.45,-10.619 l -10.445,-10.182 c -0.774,-0.754 -0.649,-1.606 -0.506,-2.047 0.143,-0.441 0.543,-1.204 1.612,-1.359 l 14.435,-2.098 c 3.908,-0.568 7.285,-3.022 9.033,-6.563 l 6.456,-13.08 c 0.478,-0.969 1.327,-1.113 1.791,-1.113 0.463,0 1.313,0.144 1.79,1.113 l 6.456,13.08 c 1.748,3.542 5.125,5.995 9.033,6.563 l 14.435,2.098 c 1.069,0.155 1.469,0.918 1.612,1.359 0.143,0.441 0.268,1.293 -0.505,2.047 l -10.445,10.182 c -2.828,2.757 -4.117,6.726 -3.45,10.619 l 2.466,14.376 c 0.105,0.611 -0.035,1.15 -0.415,1.601 -0.398,0.471 -0.978,0.751 -1.555,0.751 z"
           id="path293" />
        <path
           style="fill:url(#SVGID_21_)"
           inkscape:connector-curvature="0"
           d="m 419.9,304.972 c -3.49,5.98 -8.48,10.97 -14.45,14.46 l -27.02,-27.01 c -2.14,-1.88 -3.51,-4.63 -3.51,-7.71 0,-5.67 4.6,-10.26 10.26,-10.26 3.08,0 5.83,1.36 7.71,3.51 z"
           id="path295" />
        <circle
           style="fill:url(#SVGID_22_)"
           cx="385.17999"
           cy="284.711"
           r="10.256"
           id="circle297" />
        <path
           style="fill:url(#SVGID_23_)"
           inkscape:connector-curvature="0"
           d="m 235.516,165.212 -76.653,41.616 c 18.91,10.031 28.019,36.461 31.644,50.519 1.382,5.359 6.213,9.096 11.748,9.096 h 88.936 c 5.286,0 10.104,-3.027 12.398,-7.789 11.917,-24.736 32.807,-44.013 58.423,-53.896 2.676,-1.032 5.306,-2.037 7.824,-2.985 8.03,-3.023 9.314,-13.939 2.131,-18.633 -32.856,-21.472 -104.132,-24.842 -104.132,-24.842 h -5.093 c -9.509,0 -18.868,2.377 -27.226,6.914 z"
           id="path299" />
        <path
           style="fill:url(#SVGID_24_)"
           inkscape:connector-curvature="0"
           d="m 367.628,189.837 c -28.877,-19.526 -92.84,-23.332 -96.605,-23.539 h -4.725 c -7.877,0 -15.701,2.056 -22.625,5.945 l -60.272,33.859 c -0.841,0.472 -0.517,1.794 0.44,1.794 h 134.14 c 12.325,0 24.46,-2.858 35.694,-8.103 1.897,-0.885 3.823,-1.719 5.776,-2.499 2.606,-1.041 5.168,-2.053 7.622,-3.009 1.235,-0.481 1.525,-1.545 1.588,-2.137 0.074,-0.686 -0.046,-1.644 -1.033,-2.311 z"
           id="path301" />
        <path
           style="fill:url(#SVGID_25_)"
           inkscape:connector-curvature="0"
           d="m 293.507,214.944 h 14.662 c 3.222,0 5.833,2.612 5.833,5.833 0,3.222 -2.612,5.833 -5.833,5.833 h -14.662 c -3.222,0 -5.833,-2.612 -5.833,-5.833 0,-3.221 2.612,-5.833 5.833,-5.833 z"
           id="path303" />
        <path
           style="fill:url(#SVGID_26_)"
           inkscape:connector-curvature="0"
           d="m 36.692,241.359 c 3.471,-3.589 0.501,-9.548 -4.454,-8.929 -3.663,0.458 -7.708,1.081 -11.724,1.925 -5.677,3.761 -10.308,7.416 -13.946,10.624 -3.44,3.033 -5.579,7.072 -6.293,11.354 l 8.444,-1.038 c 10.645,-1.309 20.518,-6.228 27.973,-13.936 z"
           id="path305" />
        <path
           style="fill:url(#SVGID_27_)"
           inkscape:connector-curvature="0"
           d="m 186.197,198.723 c -0.426,-1.35 -1.673,-2.335 -3.163,-2.335 -6.842,0 -12.388,5.546 -12.388,12.388 v 3.864 c 0,3.973 1.878,7.5 4.786,9.767 l 75.113,76.219 h 34.45 z"
           id="path307" />
        <path
           style="fill:url(#SVGID_28_)"
           inkscape:connector-curvature="0"
           d="m 183.034,225.029 c -6.842,0 -12.388,-5.546 -12.388,-12.388 v -3.864 c 0,-6.842 5.546,-12.388 12.388,-12.388 1.84,0 3.332,1.492 3.332,3.332 v 21.976 c 0,1.84 -1.492,3.332 -3.332,3.332 z"
           id="path309" />
      </g>
    </g>
  </g>
</svg>
